<?xml version="1.0" standalone="no"?>
<!DOCTYPE svg PUBLIC "-//W3C//DTD SVG 20010904//EN"
 "http://www.w3.org/TR/2001/REC-SVG-20010904/DTD/svg10.dtd">
<svg version="1.0" xmlns="http://www.w3.org/2000/svg"
 width="128.000000pt" height="128.000000pt" viewBox="0 0 128.000000 128.000000"
 preserveAspectRatio="xMidYMid meet">

<g transform="translate(0.000000,128.000000) scale(0.100000,-0.100000)"
fill="#000000" stroke="none">
<path d="M25 1255 l-25 -24 0 -591 0 -591 25 -24 24 -25 481 0 481 0 25 25
c24 24 25 29 22 137 -3 105 -4 113 -23 113 -18 0 -20 -8 -25 -110 l-5 -110
-475 0 -475 0 0 585 0 585 475 0 475 0 5 -155 c5 -147 6 -155 25 -155 19 0 20
8 23 158 2 156 2 158 -22 182 l-25 25 -481 0 -481 0 -24 -25z"/>
<path d="M435 1121 c-77 -36 -135 -124 -135 -204 0 -82 60 -174 134 -208 53
-24 139 -24 192 0 74 34 134 126 134 208 0 48 -28 115 -63 152 -44 47 -101 71
-167 71 -33 0 -71 -8 -95 -19z m173 -45 c87 -46 122 -136 86 -226 l-16 -39
-38 32 c-30 25 -36 35 -29 49 30 56 -18 138 -81 138 -63 0 -111 -82 -81 -138
7 -14 1 -24 -29 -50 l-38 -32 -18 45 c-31 81 1 168 80 216 37 23 124 26 164 5z
m-45 -117 c5 -9 7 -28 3 -42 -5 -21 -12 -27 -35 -27 -29 0 -41 15 -41 49 0 39
52 54 73 20z m49 -158 l32 -28 -32 -17 c-17 -9 -54 -16 -82 -16 -28 0 -65 7
-82 16 l-32 17 32 28 c26 24 41 29 82 29 41 0 56 -5 82 -29z"/>
<path d="M1124 951 c-23 -14 -72 -90 -194 -301 l-163 -283 -11 -102 c-7 -56
-10 -107 -8 -114 7 -22 35 -10 117 49 l83 60 161 279 c89 153 164 292 167 309
8 38 -18 87 -56 107 -38 20 -58 19 -96 -4z m86 -51 c25 -25 25 -51 2 -80 l-19
-23 -41 23 c-48 27 -52 41 -17 75 29 30 49 31 75 5z m-90 -120 c21 -11 41 -24
44 -28 4 -7 -222 -413 -240 -431 -5 -5 -55 17 -78 34 -18 14 -13 25 105 230
68 118 125 215 127 215 1 0 20 -9 42 -20z m-268 -486 l32 -16 -35 -29 c-44
-37 -53 -36 -45 2 3 17 6 38 6 45 0 18 4 18 42 -2z"/>
<path d="M303 603 c-18 -7 -16 -40 3 -47 9 -3 91 -6 183 -6 133 0 171 3 187
15 19 15 19 15 0 30 -16 12 -53 15 -190 14 -94 0 -177 -3 -183 -6z"/>
<path d="M180 580 c0 -16 5 -21 23 -18 12 2 22 10 22 18 0 8 -10 16 -22 18
-18 3 -23 -2 -23 -18z"/>
<path d="M303 463 c-18 -7 -16 -40 3 -47 9 -3 91 -6 183 -6 133 0 171 3 187
15 19 15 19 15 0 30 -16 12 -53 15 -190 14 -94 0 -177 -3 -183 -6z"/>
<path d="M180 440 c0 -16 5 -21 23 -18 12 2 22 10 22 18 0 8 -10 16 -22 18
-18 3 -23 -2 -23 -18z"/>
<path d="M303 323 c-18 -7 -16 -40 3 -47 9 -3 91 -6 183 -6 133 0 171 3 187
15 19 15 19 15 0 30 -16 12 -53 15 -190 14 -94 0 -177 -3 -183 -6z"/>
<path d="M180 300 c0 -16 5 -21 23 -18 12 2 22 10 22 18 0 8 -10 16 -22 18
-18 3 -23 -2 -23 -18z"/>
<path d="M523 183 c-18 -7 -16 -40 3 -47 31 -12 130 -6 150 9 19 15 19 15 0
30 -19 14 -124 20 -153 8z"/>
</g>
</svg>
