<?xml version="1.0" standalone="no"?>
<!DOCTYPE svg PUBLIC "-//W3C//DTD SVG 20010904//EN"
 "http://www.w3.org/TR/2001/REC-SVG-20010904/DTD/svg10.dtd">
<svg version="1.0" xmlns="http://www.w3.org/2000/svg"
 width="128.000000pt" height="128.000000pt" viewBox="0 0 128.000000 128.000000"
 preserveAspectRatio="xMidYMid meet">

<g transform="translate(0.000000,128.000000) scale(0.100000,-0.100000)"
fill="#000000" stroke="none">
<path d="M940 1236 c-102 -45 -240 -122 -252 -140 -4 -6 -3 -15 3 -21 6 -6 58
16 147 62 75 39 147 74 160 78 l22 6 -2 -412 -3 -412 -75 -31 c-41 -18 -121
-56 -177 -84 l-103 -52 0 415 0 415 -37 15 c-73 31 -166 39 -296 26 -67 -6
-147 -17 -177 -24 l-55 -12 -3 -488 c-2 -429 0 -487 13 -487 8 0 57 7 107 16
123 21 310 22 363 2 31 -12 41 -21 43 -42 l3 -27 -270 3 c-244 3 -272 5 -288
21 -17 16 -18 53 -23 455 -4 380 -7 437 -20 437 -23 0 -28 -851 -5 -895 32
-61 20 -60 625 -60 605 0 593 -1 625 60 23 44 18 895 -5 895 -13 0 -16 -57
-20 -437 -5 -402 -6 -439 -23 -455 -16 -16 -44 -18 -288 -21 l-270 -3 3 27 c2
22 11 30 48 42 61 20 271 19 370 -2 41 -9 83 -16 93 -16 16 0 17 28 15 488
l-3 487 -37 3 c-30 3 -38 0 -38 -13 0 -9 9 -19 20 -22 20 -5 20 -14 20 -450
l0 -446 -42 8 c-191 31 -284 33 -391 5 -71 -18 -80 -18 -119 -4 -82 30 -213
29 -426 -2 l-42 -7 0 446 0 446 53 10 c148 31 331 32 412 1 l25 -10 0 -424 c0
-264 4 -427 10 -431 5 -3 65 23 132 59 68 35 159 79 203 96 44 18 86 36 93 42
9 8 12 109 12 443 0 239 -3 440 -6 449 -9 22 -17 20 -124 -28z"/>
<path d="M825 999 c-49 -21 -91 -39 -92 -39 -2 0 -3 -9 -3 -20 0 -11 6 -20 13
-20 27 0 212 90 215 105 6 25 -36 17 -133 -26z"/>
<path d="M900 903 c-131 -55 -170 -77 -170 -94 0 -11 3 -19 7 -19 4 0 56 21
116 47 76 32 107 51 105 61 -4 21 -18 23 -58 5z"/>
<path d="M320 888 c-90 -9 -107 -17 -96 -43 4 -12 12 -15 24 -9 9 4 75 8 147
10 109 2 131 5 133 18 6 26 -85 37 -208 24z"/>
<path d="M830 745 c-71 -32 -95 -47 -95 -61 0 -25 14 -23 115 21 92 41 116 57
106 74 -11 16 -22 13 -126 -34z"/>
<path d="M302 759 c-70 -9 -99 -24 -82 -44 7 -9 23 -10 53 -4 23 4 91 8 150 9
97 0 108 2 105 17 -6 30 -98 39 -226 22z"/>
<path d="M836 620 c-100 -44 -111 -52 -103 -74 7 -18 10 -18 140 43 55 25 87
46 85 53 -8 22 -31 18 -122 -22z"/>
<path d="M281 629 c-25 -5 -52 -15 -60 -23 -24 -24 7 -29 102 -17 45 6 111 8
146 5 58 -7 63 -6 59 12 -1 10 -14 21 -28 25 -35 10 -166 9 -219 -2z"/>
<path d="M823 485 c-59 -28 -93 -49 -93 -59 0 -24 15 -20 125 27 59 26 100 49
100 58 0 26 -40 19 -132 -26z"/>
<path d="M271 499 c-46 -9 -67 -27 -51 -43 5 -5 42 -3 90 4 49 8 108 10 150 6
60 -6 70 -5 70 9 0 8 -12 20 -26 25 -30 12 -171 11 -233 -1z"/>
<path d="M285 373 c-11 -2 -30 -6 -42 -9 -15 -3 -23 -12 -23 -25 0 -19 4 -21
33 -14 17 5 86 9 152 10 99 1 121 4 123 17 2 9 -7 18 -20 22 -25 6 -191 6
-223 -1z"/>
</g>
</svg>
