<?xml version="1.0" standalone="no"?>
<!DOCTYPE svg PUBLIC "-//W3C//DTD SVG 20010904//EN"
 "http://www.w3.org/TR/2001/REC-SVG-20010904/DTD/svg10.dtd">
<svg version="1.0" xmlns="http://www.w3.org/2000/svg"
 width="128.000000pt" height="128.000000pt" viewBox="0 0 128.000000 128.000000"
 preserveAspectRatio="xMidYMid meet">

<g transform="translate(0.000000,128.000000) scale(0.100000,-0.100000)"
fill="#000000" stroke="none">
<path d="M517 1270 c-101 -26 -177 -96 -198 -182 -7 -31 -9 -79 -5 -124 5 -60
3 -74 -8 -74 -35 0 -31 -84 7 -142 12 -19 33 -56 47 -83 52 -103 159 -185 240
-185 83 0 187 81 245 192 17 31 40 76 53 100 28 53 29 94 2 110 -17 11 -19 20
-13 84 11 139 -39 237 -148 283 -58 25 -165 35 -222 21z m15 -220 c60 -46 142
-75 242 -85 l68 -8 -6 -50 c-6 -44 -5 -49 8 -38 8 7 20 10 26 6 17 -10 11 -70
-9 -96 -10 -13 -33 -53 -51 -89 -63 -127 -116 -170 -210 -170 -94 0 -147 43
-210 170 -18 36 -41 76 -51 89 -20 26 -26 86 -9 96 6 4 17 1 25 -5 12 -10 14
-3 8 52 -6 72 8 111 53 147 38 30 56 26 116 -19z"/>
<path d="M370 429 c-262 -80 -306 -102 -341 -171 -27 -52 -37 -164 -20 -206 7
-16 24 -34 37 -41 35 -16 1073 -16 1108 0 37 17 50 59 43 139 -12 147 -55 184
-289 255 l-108 33 0 -52 c0 -73 -46 -161 -125 -242 -35 -35 -68 -64 -75 -64
-21 0 -134 123 -164 180 -20 36 -32 75 -35 116 -6 59 -7 61 -31 53z"/>
<path d="M539 419 l-21 -21 26 -27 c32 -33 32 -37 1 -113 l-25 -62 39 -39 39
-40 41 39 42 39 -26 62 c-31 78 -31 81 2 115 26 27 26 28 8 48 -25 28 -97 28
-126 -1z"/>
</g>
</svg>
