<?xml version="1.0" standalone="no"?>
<!DOCTYPE svg PUBLIC "-//W3C//DTD SVG 20010904//EN"
 "http://www.w3.org/TR/2001/REC-SVG-20010904/DTD/svg10.dtd">
<svg version="1.0" xmlns="http://www.w3.org/2000/svg"
 width="128.000000pt" height="128.000000pt" viewBox="0 0 128.000000 128.000000"
 preserveAspectRatio="xMidYMid meet">

<g transform="translate(0.000000,128.000000) scale(0.100000,-0.100000)"
fill="#000000" stroke="none">
<path d="M255 1271 c-11 -5 -31 -21 -45 -36 l-25 -27 -3 -584 c-2 -574 -2
-584 18 -604 19 -19 32 -20 380 -20 347 0 361 1 380 20 12 12 20 33 20 55 0
28 4 35 20 35 11 0 29 9 40 20 19 19 20 33 20 515 0 483 0 495 -20 515 -20 20
-31 20 -368 18 -301 -3 -347 -5 -347 -18 0 -13 47 -16 345 -20 l345 -5 0 -490
c0 -458 -1 -490 -17 -493 -17 -3 -18 23 -18 442 0 433 -1 447 -20 466 -19 19
-33 20 -355 20 l-336 0 -24 25 c-30 29 -32 74 -6 106 l19 24 354 5 c305 4 353
7 353 20 0 13 -46 15 -345 17 -190 1 -354 -2 -365 -6z m339 -231 l341 -5 0
-495 0 -495 -355 0 -355 0 -3 514 c-2 478 -1 513 14 500 14 -11 88 -15 358
-19z"/>
<path d="M324 947 c-2 -7 -3 -60 -2 -118 2 -84 6 -104 18 -104 10 0 16 13 18
43 4 55 20 54 60 -4 31 -42 51 -52 59 -27 2 6 -8 25 -23 42 l-26 31 21 18 c12
9 24 31 27 49 5 26 1 37 -19 57 -21 21 -36 26 -77 26 -33 0 -52 -5 -56 -13z
m111 -47 c9 -28 -11 -50 -46 -50 -26 0 -29 3 -29 35 0 33 2 35 34 35 26 0 36
-5 41 -20z"/>
<path d="M524 947 c-2 -7 -3 -60 -2 -118 l3 -104 65 0 c51 0 65 3 65 15 0 11
-13 16 -47 18 -45 3 -48 5 -48 32 0 25 4 29 32 32 22 2 34 9 36 21 3 14 -4 17
-32 17 -33 0 -36 2 -36 30 0 29 2 30 44 30 41 0 65 17 49 34 -13 12 -124 6
-129 -7z"/>
<path d="M705 947 c-3 -7 -4 -60 -3 -118 2 -84 6 -104 18 -104 11 0 16 13 18
47 3 46 4 47 40 50 51 4 51 32 0 36 -34 3 -38 6 -38 32 0 27 3 29 48 32 34 2
47 7 47 18 0 21 -123 28 -130 7z"/>
<path d="M340 620 c-18 -18 -20 -33 -20 -150 0 -182 -18 -170 260 -170 278 0
260 -12 260 170 0 182 18 170 -260 170 -207 0 -221 -1 -240 -20z m455 -150 l0
-125 -215 0 -215 0 -3 114 c-1 63 0 121 2 128 4 11 48 13 218 11 l213 -3 0
-125z"/>
<path d="M425 529 c-15 -24 17 -29 161 -27 125 3 149 5 149 18 0 13 -25 15
-152 18 -103 2 -154 -1 -158 -9z"/>
<path d="M425 429 c-15 -24 17 -29 161 -27 125 3 149 5 149 18 0 13 -25 15
-152 18 -103 2 -154 -1 -158 -9z"/>
<path d="M262 138 l3 -53 50 0 c38 0 50 4 50 15 0 10 -12 16 -32 18 -30 3 -33
6 -33 38 0 28 -4 34 -21 34 -18 0 -20 -5 -17 -52z"/>
</g>
</svg>
